<svg width="161" height="28" viewBox="0 0 161 28" fill="none" xmlns="http://www.w3.org/2000/svg">
<g clip-path="url(#clip0_3628_2929)">
<path d="M9.096 23.36C7.368 23.36 5.876 22.984 4.62 22.232C3.372 21.48 2.408 20.428 1.728 19.076C1.056 17.724 0.72 16.152 0.72 14.36C0.72 12.568 1.056 10.996 1.728 9.644C2.408 8.292 3.372 7.24 4.62 6.488C5.876 5.736 7.368 5.36 9.096 5.36C11.08 5.36 12.744 5.852 14.088 6.836C15.44 7.82 16.392 9.152 16.944 10.832L13.656 11.744C13.336 10.696 12.796 9.884 12.036 9.308C11.276 8.724 10.296 8.432 9.096 8.432C8 8.432 7.084 8.676 6.348 9.164C5.62 9.652 5.072 10.34 4.704 11.228C4.336 12.116 4.152 13.16 4.152 14.36C4.152 15.56 4.336 16.604 4.704 17.492C5.072 18.38 5.62 19.068 6.348 19.556C7.084 20.044 8 20.288 9.096 20.288C10.296 20.288 11.276 19.996 12.036 19.412C12.796 18.828 13.336 18.016 13.656 16.976L16.944 17.888C16.392 19.568 15.44 20.9 14.088 21.884C12.744 22.868 11.08 23.36 9.096 23.36ZM27.0023 23.36C25.2743 23.36 23.7823 22.984 22.5263 22.232C21.2783 21.48 20.3143 20.428 19.6343 19.076C18.9623 17.724 18.6263 16.152 18.6263 14.36C18.6263 12.568 18.9623 10.996 19.6343 9.644C20.3143 8.292 21.2783 7.24 22.5263 6.488C23.7823 5.736 25.2743 5.36 27.0023 5.36C28.7303 5.36 30.2183 5.736 31.4662 6.488C32.7223 7.24 33.6863 8.292 34.3583 9.644C35.0383 10.996 35.3783 12.568 35.3783 14.36C35.3783 16.152 35.0383 17.724 34.3583 19.076C33.6863 20.428 32.7223 21.48 31.4662 22.232C30.2183 22.984 28.7303 23.36 27.0023 23.36ZM27.0023 20.288C28.0983 20.304 29.0103 20.068 29.7383 19.58C30.4663 19.092 31.0103 18.4 31.3703 17.504C31.7383 16.608 31.9223 15.56 31.9223 14.36C31.9223 13.16 31.7383 12.12 31.3703 11.24C31.0103 10.36 30.4663 9.676 29.7383 9.188C29.0103 8.7 28.0983 8.448 27.0023 8.432C25.9063 8.416 24.9943 8.652 24.2663 9.14C23.5383 9.628 22.9903 10.32 22.6223 11.216C22.2623 12.112 22.0823 13.16 22.0823 14.36C22.0823 15.56 22.2623 16.6 22.6223 17.48C22.9903 18.36 23.5383 19.044 24.2663 19.532C24.9943 20.02 25.9063 20.272 27.0023 20.288Z" fill="#394456"/>
<circle cx="47.1538" cy="17.8462" r="6.15385" fill="#B0B4BB"/>
<circle cx="54.8461" cy="17.8462" r="6.15385" fill="#888F9A"/>
<circle cx="54.8462" cy="10.1538" r="6.15385" fill="#616978"/>
<circle cx="47.1538" cy="10.1538" r="6.15385" fill="#394456"/>
<path d="M66.68 23V5.72H69.608L75.32 17.192L81.032 5.72H83.96V23H80.912V12.68L75.896 23H74.744L69.728 12.68V23H66.68ZM87.3284 23V5.72H98.6084V8.768H90.5924V12.464H97.1684V15.512H90.5924V19.952H98.6084V23H87.3284ZM101.485 23V5.72H104.797L112.309 17.24V5.72H115.621V23H112.309L104.797 11.48V23H101.485ZM122.977 23V8.768H117.529V5.72H131.689V8.768H126.241V23H122.977ZM133.618 23V5.72H144.898V8.768H136.882V12.464H143.458V15.512H136.882V19.952H144.898V23H133.618ZM147.774 23V5.72H159.054V8.768H151.038V12.464H157.614V15.512H151.038V19.952H159.054V23H147.774Z" fill="#394456"/>
</g>
<defs>
<clipPath id="clip0_3628_2929">
<rect width="161" height="28" rx="14" fill="white"/>
</clipPath>
</defs>
</svg>
